Patient4_TMGait_0pt3_01_right_21_EMG.mot
version=1
nRows=13
nColumns=33
inDegrees=no
endheader
time	1LAddLong	2LGlutMax	3LGlutMed	4LIliopsoas	5LSemiMemb	6LBicFemLong	7LRecFem	8LVastMed	9LVastLat	10LGasMed	11LTibAnt	12lTibPost	13LPeroneusLong	14LSol	15LExtDigLong	16LFlexDigLong	17RAddLong	18RGlutMax	19RGlutMed	20RIliopsoas	21RSemiMemb	22RBicFemLong	23RRecFem	24RVastMed	25RVastLat	26RGasMed	27RTibAnt	28RTibPost	29RPeroneusLong	30RSol	31RExtDigLong	32RFlexDigLong
39.715	-0.052643	-0.016937	-0.023804	0.000305	-0.064545	0.052643	-0.00946	0.016937	-0.069275	-0.011292	-0.082855	0.003357	0.002594	0.002441	0.057983	-0.014801	0.048828	-0.050964	-0.30365	0.35187	0.34347	-0.006409	-0.11704	-0.009308	0.066528	-0.001221	0.11047	-0.003662	-0.063019	-0.12848	-0.000916	-0.018463
39.716	-0.034485	-0.013275	-0.008545	0.001221	-0.14481	-0.00885	0.014191	0.011902	-0.015564	0.000458	-0.13504	-0.001526	0.024719	-0.057526	0.11002	-0.001984	0.028992	0.000458	-0.1091	0.18875	0.14343	0.14954	-0.15564	0.054932	0.06012	-0.000305	0.047302	-0.010834	0.67184	-0.13306	0.002747	-0.010681
39.717	0.004272	-0.029297	-0.006866	0.016785	-0.11932	-0.099335	-0.003967	-0.000305	0.058899	0.001526	-0.059052	0.002441	0.026703	-0.039368	0.11856	-0.001831	-0.019836	-0.089722	-0.03479	0.068207	-0.018921	0.05722	-0.17349	0.14221	0.068512	0.002747	0.053406	-0.006256	0.177	-0.12405	-0.001984	-0.007629
39.718	0.032349	-0.010223	0.032043	0.000305	0.024414	-0.13382	-0.04715	-0.007629	0.075836	0.012665	-0.05188	-0.001984	0.003052	-0.039673	0.092468	-0.004425	-0.04837	-0.0737	0.19501	-0.00061	0.10178	-0.023193	-0.13397	0.081482	0.043182	0.001221	-0.14648	-0.003815	-0.22903	-0.066528	0.000153	-0.016785
39.719	0.050964	-0.010223	0.051727	0.012207	0.19165	-0.093384	-0.10269	-0.014191	0.13748	0.009766	-0.015564	0.000153	0.012207	-0.015564	0.13596	-0.000916	0.011292	-0.043793	0.072021	-0.016479	0.1236	-0.14679	-0.089874	-0.036163	-0.023499	0.005188	0.003662	-0.004425	-0.093842	-0.026245	0.002136	-0.011749
39.72	0.03479	-0.044861	-0.015564	-0.001221	0.13367	-0.007629	0.006866	-0.019989	0.22553	0.002441	-0.11871	-0.016937	-0.00824	0.029449	0.21332	-0.007935	0.023193	-0.019684	-0.064697	-0.022888	0.02182	-0.12543	-0.082855	-0.046387	-0.026245	-0.00061	0.034943	-0.008545	-0.48263	-0.055695	-0.002747	-0.014648
39.721	0.015717	-0.018768	-0.015259	0.00351	0.037689	0.030365	0.032196	-0.010529	0.22369	-0.010986	-0.049438	0.003967	-0.020752	0.010681	0.26245	-0.006561	-0.002899	-0.014801	0.17578	-0.029602	-0.076141	-0.088806	-0.096893	-0.00473	-0.012054	0.00885	-0.012207	-0.007477	-0.83466	-0.047302	-0.00351	-0.020905
39.722	0.018921	-0.000458	-0.046539	0.007477	-0.030823	0.045013	0.046234	0.000305	0.077667	-0.018158	-0.019226	-0.000305	-0.006714	-0.017548	0.033875	-0.007935	-0.007324	0.015869	0.30762	-0.016327	-0.11505	-0.052795	-0.13611	-0.045166	-0.012207	0.015869	0.19333	-0.005951	-0.6662	-0.14374	0.001831	-0.020905
39.723	0.013428	0.016632	-0.029755	0.01236	-0.001984	0.07309	0.048218	0.000763	-0.089874	0.007019	-0.029449	0.006256	-0.006866	-0.0354	-0.074768	-0.001984	-0.008698	-0.015717	0.37384	-0.065918	0.037537	-0.005493	-0.13825	-0.006866	-0.002289	0.013885	0.080414	-0.003967	-0.094757	-0.10849	-0.003204	-0.018921
39.724	0.013885	-0.022125	-0.029144	0	0.052185	0.061951	0.006866	0.00351	-0.13489	-0.005035	-0.009918	0.005798	0.008392	-0.050201	-0.065765	-0.009155	0.009766	-0.080109	-0.090179	-0.069885	0.18768	-0.065155	-0.13947	-0.070038	-0.015106	-0.009766	0.032349	-0.006256	0.49027	0.011139	-0.003052	-0.015259
39.725	0.016785	-0.034637	0.008087	-0.006866	0.10925	0.069122	0.065308	-0.000305	-0.031891	-0.014038	0.11063	0.005646	-0.019531	-0.056152	-0.029755	-0.002289	-0.001984	-0.088959	-0.15274	-0.031281	0.12909	0.058899	-0.16419	-0.096436	-0.032196	-0.008698	0.061951	-0.011597	0.23712	0.073395	-0.00412	-0.014038
39.726	0.012512	0.013275	0.018463	-0.009155	0.046997	0.098114	0.12329	0.002747	0.025177	-0.00351	0.15503	0.009613	-0.048981	-0.033569	-0.001373	-0.006866	-0.003662	-0.058899	-0.061493	-0.029602	0.013428	0.068817	-0.17441	0.040894	-0.014343	-0.014954	0.080872	-0.00061	-0.011444	0.074005	-0.003815	-0.013885
39.727	0.009613	0.037689	0.007935	0.005188	-0.024261	0.11368	0.14313	0.00885	0.00351	0.003662	0.087128	0.006104	-0.020142	-0.050659	-0.005341	-0.002899	-0.001373	-0.042877	-0.22949	-0.014801	-0.072784	0.044708	-0.14297	0.043335	-0.01236	-0.02182	0.044861	-0.005798	-0.028992	0.15579	-0.001678	-0.015564
